<?xml version="1.0" encoding="UTF-8" standalone="no"?> <svg id="Layer_1" data-name="Layer 1" xmlns="http://www.w3.org/2000/svg" xmlns:xlink="http://www.w3.org/1999/xlink" viewBox="0 0 512 512"><defs><style>.cls-1{fill:url(#linear-gradient);}.cls-2{fill:url(#linear-gradient-2);}.cls-3{fill:url(#linear-gradient-3);}.cls-4{fill:url(#linear-gradient-4);}.cls-5{fill:url(#linear-gradient-5);}.cls-6{fill:url(#linear-gradient-6);}.cls-7{fill:url(#linear-gradient-7);}.cls-8{fill:url(#linear-gradient-8);}</style><linearGradient id="linear-gradient" x1="83.571" y1="256" x2="421.056" y2="256" gradientUnits="userSpaceOnUse"><stop offset="0" stop-color="#edf1f2"/><stop offset="1" stop-color="#c6cbcc"/></linearGradient><linearGradient id="linear-gradient-2" x1="232.795" y1="75.027" x2="269.438" y2="74.385" gradientUnits="userSpaceOnUse"><stop offset="0" stop-color="#c6cbcc"/><stop offset="1" stop-color="#9fa5a6"/></linearGradient><linearGradient id="linear-gradient-3" x1="235.041" y1="203.034" x2="271.684" y2="202.392" xlink:href="#linear-gradient-2"/><linearGradient id="linear-gradient-4" x1="234.667" y1="149.333" x2="277.333" y2="149.333" gradientUnits="userSpaceOnUse"><stop offset="0" stop-color="#4793eb"/><stop offset="1" stop-color="#2367ec"/></linearGradient><linearGradient id="linear-gradient-5" x1="262.571" y1="365.61" x2="429.714" y2="365.61" xlink:href="#linear-gradient-4"/><linearGradient id="linear-gradient-6" x1="262.571" y1="403.473" x2="429.714" y2="403.473" xlink:href="#linear-gradient-4"/><linearGradient id="linear-gradient-7" x1="262.571" y1="441.324" x2="429.714" y2="441.324" xlink:href="#linear-gradient-4"/><linearGradient id="linear-gradient-8" x1="262.571" y1="480" x2="429.714" y2="480" xlink:href="#linear-gradient-4"/></defs><path class="cls-1" d="M288,21.333H224C147.536,21.333,85.333,83.539,85.333,160V330.667c0,88.224,71.776,160,160,160h21.334c88.224,0,160-71.776,160-160V160C426.667,83.539,364.464,21.333,288,21.333Z"/><path class="cls-2" d="M250.667,21.333V122.667a5.333,5.333,0,0,0,10.666,0V21.333Z"/><path class="cls-3" d="M256,234.667a5.334,5.334,0,0,1-5.333-5.334V176a5.333,5.333,0,0,1,10.666,0v53.333A5.334,5.334,0,0,1,256,234.667Z"/><rect class="cls-4" x="234.667" y="106.667" width="42.667" height="85.333" rx="21.333"/><path class="cls-5" d="M443.344,370.031a159.929,159.929,0,0,0-182.714-.073l-4.574,3.179c-.036.124-.056.2-.056.2L269.471,389.8l3.336-2.319a138.591,138.591,0,0,1,158.308.031l3.4,2.377,13.553-16.554Z"/><path class="cls-6" d="M415.411,402.677a116.983,116.983,0,0,0-126.822,0l-5.6,3.641,13.593,16.613,3.634-2.358a95.605,95.605,0,0,1,103.572,0l3.658,2.374,13.6-16.61Z"/><path class="cls-7" d="M386.734,435.2a74.936,74.936,0,0,0-69.468,0l-7.438,3.92,13.788,16.852,3.6-1.9a53.825,53.825,0,0,1,49.572,0l3.612,1.9,13.793-16.848Z"/><path class="cls-8" d="M352,469.333a31.823,31.823,0,0,0-14.569,3.533l14.562,17.8,14.576-17.8A31.82,31.82,0,0,0,352,469.333Z"/></svg>